<?xml version="1.0" encoding="UTF-8"?><svg id="Layer_2" xmlns="http://www.w3.org/2000/svg" viewBox="0 0 348.11 348.11"><defs><style>.cls-1{fill:#fff;}</style></defs><g id="Layer_2-2"><g id="Layer_1-2"><g><polygon class="cls-1" points="40.39 286.54 178.7 226.74 122.94 160.48 113.6 228.79 40.39 286.54"/><polygon class="cls-1" points="0 159.08 140.08 214.59 147.51 128.31 92.6 170.01 0 159.08"/><polygon class="cls-1" points="61.57 40.39 121.37 178.7 187.63 122.94 119.31 113.6 61.57 40.39"/><polygon class="cls-1" points="189.03 0 133.51 140.08 219.8 147.51 178.09 92.6 189.03 0"/><polygon class="cls-1" points="307.71 61.57 169.41 121.37 225.17 187.63 234.5 119.31 307.71 61.57"/><polygon class="cls-1" points="348.11 189.03 208.02 133.51 200.6 219.8 255.51 178.09 348.11 189.03"/><polygon class="cls-1" points="286.54 307.71 226.74 169.41 160.48 225.17 228.79 234.5 286.54 307.71"/><polygon class="cls-1" points="159.08 348.11 214.59 208.02 128.31 200.6 170.01 255.51 159.08 348.11"/></g></g></g></svg>