<?xml version="1.0" encoding="UTF-8"?><svg id="Layer_2" xmlns="http://www.w3.org/2000/svg" viewBox="0 0 439.09 439.09"><g id="Layer_1-2"><g><polygon points="163 231.97 34.16 344.64 1 176.72 163 231.97"/><polygon points="170.78 188.35 0 176.91 95.29 34.73 170.78 188.35"/><polygon points="207.12 163 94.45 34.16 262.37 1 207.12 163"/><polygon points="250.75 170.78 262.18 0 404.36 95.29 250.75 170.78"/><polygon points="276.09 207.12 404.94 94.45 438.09 262.37 276.09 207.12"/><polygon points="268.32 250.75 439.09 262.18 343.8 404.36 268.32 250.75"/><polygon points="231.97 276.09 344.64 404.94 176.72 438.09 231.97 276.09"/><polygon points="188.34 268.32 176.91 439.09 34.73 343.8 188.34 268.32"/></g></g></svg>