<?xml version="1.0" encoding="UTF-8"?><svg id="Layer_2" xmlns="http://www.w3.org/2000/svg" viewBox="0 0 64.73 75.05"><defs><style>.cls-1{fill:#8e2825;}.cls-2{fill:#d3af46;}</style></defs><g id="Art"><g id="out_shield"><path class="cls-2" d="M0,0H64.73V50.53s-3.14,6.77-4.87,8.34-10.98,9.25-12.39,9.74-14.53,6.44-14.53,6.44h-2.06s-16.76-7.68-18.66-9.83S2.23,56.81,1.32,53.67s-1.32-6.61-1.32-6.61V0Z"/><path class="cls-2" d="M2.23,1.98H62.42l-.66,48.14s-2.31,5.12-3.8,6.28-7.1,7.51-11.39,9.25-14.24,6.85-14.24,6.85c0,0-14.16-6.19-15.65-7.27s-8.59-6.28-10.16-8.67-4.13-6.03-4.29-7.68S2.23,1.98,2.23,1.98Z"/></g><path id="In_shield" class="cls-1" d="M2.15,2.23H62.5V46.49s-.33,2.97-1.07,4.13-5.04,8.75-9,11.31-20.11,10.57-20.11,10.57c0,0-16.89-6.94-18.7-8.83S3.88,54.74,3.14,51.52s-1.32-7.93-1.32-13.13S2.15,2.23,2.15,2.23Z"/><path d="M14.86,2.48s-.91,4.71-2.97,6.52-4.95,3.88-6.03,4.46-3.71,1.49-3.71,1.49l-.17,3.8s5.61-2.15,7.68-3.72,6.85-6.94,6.94-7.6,1.49-4.95,1.49-4.95h-3.22Z"/><path d="M28.83,4.14s-8.43,8.83-10.5,10.64-4.95,3.88-6.03,4.46-10.07,3.63-10.07,3.63l-.41,6.28s12.22-6.77,14.28-8.34,6.85-6.94,6.94-7.6S30.63,2.15,30.63,2.15l-1.8,1.99Z"/><path d="M36.91,2.48s-15.61,23.99-17.67,25.8-4.95,3.88-6.03,4.46-11.23,3.37-11.23,3.37v7.11s12.96-7.34,15.03-8.91,6.85-6.94,6.94-7.6S39.88,2.31,39.88,2.31l-2.97,.17Z"/><path d="M40.87,13.62s-15.94,23.25-18,25.07-4.95,3.88-6.03,4.46-14.45,3.5-14.45,3.5l1.07,5.61s15.11-5.98,17.17-7.55,6.85-6.94,6.94-7.6S49.54,2.48,49.54,2.48l-8.67,11.15Z"/><path d="M61.35,2.23s-26.67,42.78-28.73,44.6-4.95,3.88-6.03,4.46-19.4,5.77-19.4,5.77l4.46,4.29s16.68-6.93,18.74-8.49,6.85-6.94,6.94-7.6S62.17,2.72,62.17,2.72l-.83-.5Z"/><path d="M56.8,30.01s-15.64,23.64-17.71,25.45-4.95,3.88-6.03,4.46-15.64,5.8-15.64,5.8l4.69,2.34s12.69-5.01,14.76-6.58,6.85-6.94,6.94-7.6S62.42,21.22,62.42,21.22l-5.62,8.79Z"/><path d="M62.17,39.05s-10.82,19.02-12.89,20.84-4.95,3.88-6.03,4.46-15.64,5.8-15.64,5.8l4.69,2.34s12.55-6.56,14.93-7.6c3.22-1.4,8.34-5.86,8.67-6.44,.71-1.23,6.52-11.36,6.52-11.36l-.25-8.04Z"/><g><path class="cls-2" d="M21.63,19.32l-4.05,3.96v3.63l.66,.99s1.65,.33,2.31,0,1.49-1.07,1.49-1.07l-4.46,3.06s.08,1.24,.5,1.32,1.73,.33,2.15,0,1.82-1.24,1.82-1.24h.99l-.5,1.82-1.73,.5s-2.15-.41-3.22-.33-3.3,.33-3.63,1.73,0,2.42,0,2.42c0,0-1.07-.44-1.73-1.18s-1.82-1.16-1.82-1.16l-.83,.25s.91-3.96,.41-4.62-2.15-1.4-2.72-.74-1.73,1.82-1.65,3.3,4.87,9.25,5.94,9.33,2.64,.41,3.55,0l.08,1.73h1.49l1.24-.99s1.07-.33,1.07,.25-1.24,3.14-1.24,3.14l-.58,1.4s-1.65,.17-2.56,0-1.98-.08-2.23,.91-.33,3.3-.33,3.3h6.61l4.71-4.87,.74-3.14s1.9,.5,3.55,.5,6.19-1.4,6.61-1.9,1.02-.41,1.02-.41c0,0-.63,2.48,0,3.47s.19,3.06,0,3.06-.44,1.07-1.92,1.16-2.81,.25-2.72-.41-.25-1.32-1.07-1.24-2.23,.5-2.39,1.65,.08,2.15,.08,2.15h7.68s2.56-.5,3.3-1.16,1.49-1.32,1.57-1.98-.74-1.65-.74-1.65l1.57-2.48s.83-1.65,.66-2.06,.5,.5,2.89,1.24,1.98,1.65,4.21,1.49l4.46-.33s2.81,2.56,2.48,2.39,.03,1.32,.03,1.32c0,0-2.5,.25-3.25,.33s-1.49,1.24-1.32,1.82,.17,1.57,.17,1.57l5.86-.41,1.98-1.32s.58-3.22,0-4.21-.33-2.97-2.23-3.47-2.31-1.07-3.63-1.07-3.06,.17-3.06,.17l-1.16-1.9,.5-1.4s1.16,.17,2.39,.08,3.22-.91,3.72-2.56,1.16-3.72,.33-5.12-.91-3.06-3.55-3.3-6.44,.41-7.27,.74-2.23,.66-3.22,.58-2.31-.33-2.39-.99-.99-2.06,0-2.23,.99,.58,1.73,.83,1.4,.5,1.9,.25,.99-.74,1.4-.91,1.9-.58,1.9-.58c0,0-1.24-1.4-2.64-1.65s-3.14-.41-3.63,.17-1.98,.83-2.23,1.24-.91,2.48-.25,3.14,1.16,2.56,3.63,2.56,5.61-.5,6.44-1.07,2.64-1.16,3.63-.74,2.72,1.4,2.72,2.89,.58,3.22-1.07,3.88-4.13,.33-4.13,.33c0,0-1.32-1.57-2.56-1.73s-2.15-.99-5.04-.41-3.3,1.16-5.28,.91-3.42-.41-3.42-.41c0,0-.13-1.16,.53-1.49s.74-.91,.74-.91l-.08-2.15s1.37,.33,1.76-.33,0-1.82,0-1.82c0,0-.69,.17-1.18,.17s-.58-4.21-.58-4.21c0,0,.74,.17,1.07-.08s.69-1.82,.69-1.82c-.69,.33-1.18,.83-1.68,.5s-.66-1.16-1.9-1.9-2.06-.83-2.06-.83l-.5-2.97-1.07-.83s-.17,2.39-.25,2.89-.5,.91-.5,.91l-.91-.17s-1.07-2.15-1.57-2.31-1.49-.08-1.49-.08c0,0,.58,1.07,.5,1.32s-2.31,.41-2.31,.41l.08,1.24Z"/><path class="cls-2" d="M17.5,27.99s-1.4-.17-1.49-.66-.5-1.16-.5-1.16c0,0-.99-.83-.99,0s.08,1.9,.41,2.31,1.64,.49,2.56,.66,2.31-.79,2.31-.79l-2.31-.37Z"/></g></g></svg>