<?xml version="1.0" encoding="UTF-8"?><svg id="Layer_2" xmlns="http://www.w3.org/2000/svg" viewBox="0 0 223.58 148.25"><defs><style>.cls-1{fill:#feed80;}.cls-2{fill:#cf90bf;}.cls-3{fill:#dbb9d3;}.cls-4{fill:#2a6130;}.cls-5{fill:none;stroke:#6fc06c;stroke-miterlimit:10;}</style></defs><g id="Layer_1-2"><path class="cls-4" d="M0,137.93s28.11,7.4,52.51-4.52,35.83-38.65,35.83-38.65c0,0-28.11-7.4-52.51,4.52C11.44,111.2,0,137.93,0,137.93Z"/><g><path class="cls-5" d="M13.8,132.5s6.37-5.75,15.63-10.69,32.47-12.73,40.61-17.12"/><line class="cls-5" x1="46.83" y1="114.34" x2="37.71" y2="126.59"/><line class="cls-5" x1="62.42" y1="99.02" x2="53.3" y2="111.27"/><line class="cls-5" x1="38.38" y1="116.42" x2="23.11" y2="116.17"/></g><path class="cls-4" d="M92.44,51.28s-28.11,7.4-52.51-4.52C15.53,34.84,4.09,8.11,4.09,8.11c0,0,28.11-7.4,52.51,4.52,24.39,11.92,35.83,38.65,35.83,38.65Z"/><g><path class="cls-5" d="M17.5,14.06s8.42,1.68,17.91,6.15,29.61,18.44,37.99,22.35"/><line class="cls-5" x1="51.81" y1="29.7" x2="36.53" y2="29.7"/><line class="cls-5" x1="73.41" y1="33.05" x2="58.13" y2="33.05"/><line class="cls-5" x1="45.09" y1="24.16" x2="36.17" y2="11.77"/></g><polygon class="cls-2" points="156.85 37.08 191.49 11.33 180.89 53.16 223.58 59.45 186.5 81.53 212.25 116.16 170.42 105.56 164.13 148.25 142.05 111.18 107.42 136.92 118.02 95.09 75.33 88.81 112.4 66.72 86.66 32.09 128.49 42.69 134.77 0 156.85 37.08"/><polygon class="cls-3" points="141.45 42.26 163.58 11.68 165.72 49.37 203 43.39 177.86 71.56 208.44 93.69 170.75 95.83 176.73 133.11 148.56 107.97 126.43 138.55 124.28 100.87 87.01 106.84 112.15 78.67 81.57 56.54 119.25 54.4 113.28 17.12 141.45 42.26"/><circle class="cls-1" cx="147.92" cy="74.13" r="17.88"/></g></svg>